<?xml version="1.0" encoding="UTF-8" standalone="no" ?>
<!DOCTYPE svg PUBLIC "-//W3C//DTD SVG 1.1//EN" "http://www.w3.org/Graphics/SVG/1.1/DTD/svg11.dtd">
<svg xmlns="http://www.w3.org/2000/svg" xmlns:xlink="http://www.w3.org/1999/xlink" version="1.1" width="279.95330011629426" height="279.9533001162944" viewBox="180.02334994185287 175.5737555038458 279.95330011629426 279.9533001162944" xml:space="preserve">
<desc>Created with Fabric.js 5.3.0</desc>
<defs>
</defs>
<g transform="matrix(3.7749952813 0 0 3.7749952813 320 315.550405562)" id="_QbCXOSDBU23u_Slh9c6y"  >
<path style="stroke: rgb(206,163,69); stroke-width: 0; stroke-dasharray: none; stroke-linecap: butt; stroke-dashoffset: 0; stroke-linejoin: miter; stroke-miterlimit: 4; fill: #fa426a; fill-rule: nonzero; opacity: 1;"  transform=" translate(0, 0)" d="M 0 -37.07995 C 20.46813 -37.07995 37.07995 -20.468129999999995 37.07995 0 C 37.07995 20.46813 20.468129999999995 37.07995 0 37.07995 C -20.46813 37.07995 -37.07995 20.468129999999995 -37.07995 0 C -37.07995 -20.46813 -20.468129999999995 -37.07995 0 -37.07995 z" stroke-linecap="round" />
</g>
<g transform="matrix(1.3693685764 0 0 1.0935014006 320.11688126 269.8628391226)" id="TQDAAKEH7J_KJ07Lf-SdK"  >
<path style="stroke: none; stroke-width: 1; stroke-dasharray: none; stroke-linecap: butt; stroke-dashoffset: 0; stroke-linejoin: miter; stroke-miterlimit: 4; fill: rgb(255,255,255); fill-rule: nonzero; opacity: 1;"  transform=" translate(0, 0)" d="M 19.91465 -5.04735 L 30.6646 16.452550000000002 L 30.6646 16.452550000000002 C 32.52728 20.17791 32.62809 24.87594 30.92786 28.72119 C 29.227629999999998 32.56644 25.994419999999998 34.95266 22.48452 34.95266 L -0.08535000000000181 34.95266 L -22.272710000000004 34.95266 L -22.272710000000004 34.95266 C -25.859630000000003 34.95266 -29.163790000000002 32.51408 -30.901340000000005 28.58444 C -32.63888000000001 24.6548 -32.53586000000001 19.85368 -30.632310000000004 16.04656 L -20.08536 -5.047350000000002 L -7.811310000000001 -29.595450000000003 L -7.811310000000001 -29.595450000000003 C -6.14479 -32.928490000000004 -3.2256300000000007 -34.95264 -0.08536000000000055 -34.95264 C 3.0549099999999996 -34.95264 5.974069999999999 -32.928490000000004 7.6405899999999995 -29.595450000000003 z" stroke-linecap="round" />
</g>
<g transform="matrix(-0.1966924363 0 0 0.3407488686 320 264.6524533091)" id="Pfzv4tW_kJVZ40MctKE1J"  >
<path style="stroke: rgb(122,182,242); stroke-width: 0; stroke-dasharray: none; stroke-linecap: butt; stroke-dashoffset: 0; stroke-linejoin: miter; stroke-miterlimit: 4; fill: #fa426a; fill-rule: nonzero; opacity: 1;"  transform=" translate(0, 0)" d="M -40.0128 -37.47363 L 40.01281 -37.47363 L 26.077060000000003 37.47364 L -26.101519999999994 37.47364 z" stroke-linecap="round" />
</g>
<g transform="matrix(-0.2770316005 0 0 0.2770316005 320 262.6991164379)" id="Md7ZaGad0u2GeMW6WyA6W"  >
<path style="stroke: rgb(190,162,182); stroke-width: 0; stroke-dasharray: none; stroke-linecap: butt; stroke-dashoffset: 0; stroke-linejoin: miter; stroke-miterlimit: 4; fill: #fa426a; fill-rule: nonzero; opacity: 1;"  transform=" translate(0, 0)" d="M 0 31.24991 C 10.35003 31.24991 18.75006 39.64994 18.75006 49.999970000000005 C 18.75006 60.35000000000001 10.350030000000002 68.75003000000001 0 68.75003000000001 C -10.35003 68.75003000000001 -18.75006 60.35000000000001 -18.75006 49.999970000000005 C -18.75006 39.64994 -10.350030000000002 31.249910000000003 0 31.249910000000003 z M 0 -68.75003 C 15.68182 -68.75003 28.40909 -56.02275999999999 28.40909 -40.340939999999996 C 28.40909 -24.659119999999994 15.681819999999998 -11.931849999999997 0 -11.931849999999997 C -15.68182 -11.931849999999997 -28.40909 -24.659119999999998 -28.40909 -40.340939999999996 C -28.40909 -56.02276 -15.681819999999998 -68.75003 0 -68.75003 z" stroke-linecap="round" />
</g>
<g transform="matrix(-0.1462276355 0 0 0.1462276355 320 290.0795567683)" id="WH-3UlRY-jvfn5YMyUnsn"  >
<path style="stroke: rgb(131,150,53); stroke-width: 0; stroke-dasharray: none; stroke-linecap: butt; stroke-dashoffset: 0; stroke-linejoin: miter; stroke-miterlimit: 4; fill: #fa426a; fill-rule: nonzero; opacity: 1;"  transform=" translate(0, 0)" d="M 0 -40.98361 C 22.62295 -40.98361 40.98361 -22.62295 40.98361 0 C 40.98361 22.62295 22.62295 40.98361 0 40.98361 C -22.62295 40.98361 -40.98361 22.62295 -40.98361 0 C -40.98361 -22.62295 -22.62295 -40.98361 0 -40.98361 z" stroke-linecap="round" />
</g>
</svg>