<?xml version="1.0" encoding="UTF-8" standalone="no" ?>
<!DOCTYPE svg PUBLIC "-//W3C//DTD SVG 1.1//EN" "http://www.w3.org/Graphics/SVG/1.1/DTD/svg11.dtd">
<svg xmlns="http://www.w3.org/2000/svg" xmlns:xlink="http://www.w3.org/1999/xlink" version="1.1" width="481.23600000000005" height="543.5624312026622" viewBox="69.89799999999994 36.73475431075508 481.23600000000005 543.5624312026622" xml:space="preserve">
<desc>Created with Fabric.js 5.3.0</desc>
<defs>
</defs>
<g transform="matrix(2.1987120858 0 0 2.1987120858 289.4229874415 308.5159699121)" id="86i4Td2wdV7RhIOaSsH1K"  >
<path style="stroke: rgb(255,0,0); stroke-width: 0; stroke-dasharray: none; stroke-linecap: butt; stroke-dashoffset: 0; stroke-linejoin: miter; stroke-miterlimit: 4; fill: #4433ff; fill-rule: nonzero; opacity: 1;"  transform=" translate(0, 0)" d="M -91.82889 120.88041 C -91.82889 120.88041 -48.326750000000004 -10.33247999999999 -44.139920000000004 -21.439610000000002 C -39.95309 -32.54674 -30.576020000000003 -49.307230000000004 -26.253160000000005 -55.06214 C -21.930300000000003 -60.81704 -18.387330000000006 -65.26799 -9.922270000000005 -76.50093 C -10.943380000000005 -89.90778 -0.25372000000000483 -113.26877999999999 19.812439999999995 -118.75864999999999 C 39.87859999999999 -124.24850999999998 51.18965 -118.33033999999999 60.40998 -109.62901 C 81.1168 -104.64389999999999 91.8289 -102.87225 91.8289 -102.87225 L 65.13971000000001 -81.44163999999999 C 65.13971000000001 -81.44163999999999 63.45052000000001 -69.76414 62.43701000000001 -61.31819999999999 C 64.00971000000001 -52.872249999999994 64.63102 -34.01158999999999 53.31539000000001 -8.27765999999999 C 34.05863000000001 40.70883000000001 -19.657579999999996 39.695310000000006 -19.657579999999996 39.695310000000006 L -66.2792 110.30342 z M 30.64956 -96.75517 C 30.64956 -92.22897 34.323 -88.55554000000001 38.84919 -88.55554000000001 C 43.37539 -88.55554000000001 47.04882 -92.22898 47.04882 -96.75517 C 47.04882 -101.28137000000001 43.37538 -104.9548 38.84919 -104.9548 C 34.32299 -104.9548 30.64956 -101.28136 30.64956 -96.75517 z" stroke-linecap="round" />
</g>
<g transform="matrix(1 0 0 1 310.516 252.229)" id="yZ443brqcsww7ZDoh_sBY"  >
<path style="stroke: none; stroke-width: 1; stroke-dasharray: none; stroke-linecap: butt; stroke-dashoffset: 0; stroke-linejoin: miter; stroke-miterlimit: 4; fill: #4433ff; fill-rule: nonzero; opacity: 1;"  transform=" translate(-310.516, -252.229)" d="M 113.465 234.049 L 113.465 234.049 Q 131.241 234.049 131.241 255.057 L 131.241 255.057 L 131.241 287.377 L 110.233 287.377 L 110.233 258.491 Q 110.233 251.623 104.274 251.623 L 104.274 251.623 Q 101.244 251.623 99.325 253.39 Q 97.406 255.158 97.406 258.592 L 97.406 258.592 L 97.406 287.377 L 76.398 287.377 L 76.398 235.261 L 97.002 235.261 L 97.002 242.836 L 97.305 242.836 Q 102.153 234.049 113.465 234.049 Z M 195.174 260.713 L 195.174 260.713 Q 195.174 263.642 194.77 266.571 L 194.77 266.571 L 156.794 266.571 Q 157.198 274.55 166.793 274.55 L 166.793 274.55 Q 172.146 274.55 174.267 271.722 L 174.267 271.722 L 193.861 271.722 Q 191.538 279.802 184.266 284.195 Q 176.994 288.589 166.389 288.589 L 166.389 288.589 Q 152.754 288.589 144.927 281.367 Q 137.099 274.146 137.099 261.521 L 137.099 261.521 Q 137.099 249.098 144.977 241.523 L 144.977 241.523 Q 152.956 234.049 166.288 234.049 L 166.288 234.049 Q 179.317 234.049 187.296 241.119 L 187.296 241.119 Q 195.174 248.29 195.174 260.713 Z M 165.985 247.987 L 165.985 247.987 Q 158.309 247.987 157.097 255.663 L 157.097 255.663 L 174.974 255.663 Q 174.267 247.987 165.985 247.987 Z M 327.181 287.377 L 327.181 287.377 L 306.072 287.377 Q 304.658 284.65 304.557 281.317 L 304.557 281.317 Q 300.012 289.094 287.791 289.094 L 287.791 289.094 Q 278.903 289.094 273.752 284.953 Q 268.601 280.812 268.601 273.035 L 268.601 273.035 Q 268.601 265.864 273.399 261.874 Q 278.196 257.885 288.498 256.875 L 288.498 256.875 L 297.992 255.966 Q 301.325 255.663 302.79 254.754 Q 304.254 253.845 304.254 252.027 L 304.254 252.027 Q 304.254 248.189 298.396 248.189 L 298.396 248.189 Q 295.265 248.189 293.801 249.3 Q 292.336 250.411 292.134 253.34 L 292.134 253.34 L 271.126 253.34 Q 271.53 243.442 278.095 238.745 Q 284.66 234.049 298.699 234.049 L 298.699 234.049 Q 325.262 234.049 325.262 250.714 L 325.262 250.714 L 325.262 279.095 Q 325.262 283.539 327.181 287.377 Z M 296.073 275.964 L 296.073 275.964 Q 304.254 275.964 304.254 267.48 L 304.254 267.48 L 304.254 264.046 Q 303.244 265.763 299.709 266.167 L 299.709 266.167 L 294.861 266.773 Q 289.912 267.379 289.912 271.318 L 289.912 271.318 Q 289.912 275.964 296.073 275.964 Z M 354.148 215.465 L 354.148 287.377 L 333.14 287.377 L 333.14 215.465 L 354.148 215.465 Z M 418.081 260.713 L 418.081 260.713 Q 418.081 263.642 417.677 266.571 L 417.677 266.571 L 379.701 266.571 Q 380.105 274.55 389.7 274.55 L 389.7 274.55 Q 395.053 274.55 397.174 271.722 L 397.174 271.722 L 416.768 271.722 Q 414.445 279.802 407.173 284.195 Q 399.901 288.589 389.296 288.589 L 389.296 288.589 Q 375.661 288.589 367.834 281.367 Q 360.006 274.146 360.006 261.521 L 360.006 261.521 Q 360.006 249.098 367.884 241.523 L 367.884 241.523 Q 375.863 234.049 389.195 234.049 L 389.195 234.049 Q 402.224 234.049 410.203 241.119 L 410.203 241.119 Q 418.081 248.29 418.081 260.713 Z M 388.892 247.987 L 388.892 247.987 Q 381.216 247.987 380.004 255.663 L 380.004 255.663 L 397.881 255.663 Q 397.174 247.987 388.892 247.987 Z M 447.876 235.261 L 458.683 235.261 L 458.683 249.704 L 447.876 249.704 L 447.876 267.177 Q 447.876 270.106 449.139 270.964 Q 450.401 271.823 453.835 271.823 L 453.835 271.823 L 457.673 271.823 L 457.673 287.377 Q 452.623 287.882 448.785 287.882 L 448.785 287.882 Q 437.069 287.882 431.969 284.044 Q 426.868 280.206 426.868 271.419 L 426.868 271.419 L 426.868 249.704 L 419.293 249.704 L 419.293 235.261 L 426.868 235.261 L 426.868 219.202 L 447.876 219.202 L 447.876 235.261 Z M 498.679 215.364 L 483.731 230.918 L 464.743 230.918 L 473.732 215.364 L 498.679 215.364 Z M 485.852 235.261 L 485.852 287.377 L 464.844 287.377 L 464.844 235.261 L 485.852 235.261 Z M 521.606 215.465 L 542.816 215.465 L 529.686 230.918 L 504.436 230.918 L 491.306 215.465 L 512.516 215.465 L 517.061 221.828 L 521.606 215.465 Z M 515.546 252.835 L 515.546 252.835 L 525.747 254.249 Q 535.544 255.663 540.089 259.703 Q 544.634 263.743 544.634 270.712 L 544.634 270.712 Q 544.634 279.499 537.463 284.296 Q 530.292 289.094 517.263 289.094 L 517.263 289.094 Q 492.013 289.094 490.599 270.611 L 490.599 270.611 L 510.597 270.611 Q 510.9 273.338 512.617 274.55 Q 514.334 275.762 517.97 275.762 L 517.97 275.762 Q 524.333 275.762 524.333 272.732 L 524.333 272.732 Q 524.333 270.409 519.889 269.601 L 519.889 269.601 L 509.688 268.187 Q 491.205 265.561 491.205 251.522 L 491.205 251.522 Q 491.205 243.038 497.871 238.543 Q 504.537 234.049 517.061 234.049 L 517.061 234.049 Q 541.907 234.049 543.018 251.825 L 543.018 251.825 L 524.131 251.825 Q 523.929 249.199 522.313 248.037 Q 520.697 246.876 517.061 246.876 L 517.061 246.876 Q 511.102 246.876 511.102 249.704 L 511.102 249.704 Q 511.102 252.027 515.546 252.835 Z" stroke-linecap="round" />
</g>
<g transform="matrix(1 0 0 1 310.7935 250.2795)" id="rsORHO7sXxZi-eeW2qNLa"  >
<path style="stroke: none; stroke-width: 1; stroke-dasharray: none; stroke-linecap: butt; stroke-dashoffset: 0; stroke-linejoin: miter; stroke-miterlimit: 4; fill: rgb(255,255,255); fill-rule: nonzero; opacity: 1;"  transform=" translate(-310.7935, -250.2795)" d="M 242.871 232.049 L 242.871 232.049 Q 260.647 232.049 260.647 253.057 L 260.647 253.057 L 260.647 285.377 L 239.639 285.377 L 239.639 256.491 Q 239.639 249.623 233.68 249.623 L 233.68 249.623 Q 230.65 249.623 228.731 251.39 Q 226.812 253.158 226.812 256.592 L 226.812 256.592 L 226.812 285.377 L 205.804 285.377 L 205.804 233.261 L 226.408 233.261 L 226.408 240.836 L 226.711 240.836 Q 231.559 232.049 242.871 232.049 Z M 324.883 285.377 L 324.883 285.377 L 303.774 285.377 Q 302.36 282.65 302.259 279.317 L 302.259 279.317 Q 297.714 287.094 285.493 287.094 L 285.493 287.094 Q 276.605 287.094 271.454 282.953 Q 266.303 278.812 266.303 271.035 L 266.303 271.035 Q 266.303 263.864 271.1 259.874 Q 275.898 255.885 286.2 254.875 L 286.2 254.875 L 295.694 253.966 Q 299.027 253.663 300.491 252.754 Q 301.956 251.845 301.956 250.027 L 301.956 250.027 Q 301.956 246.189 296.098 246.189 L 296.098 246.189 Q 292.967 246.189 291.502 247.3 Q 290.038 248.411 289.836 251.34 L 289.836 251.34 L 268.828 251.34 Q 269.232 241.442 275.797 236.745 Q 282.362 232.049 296.401 232.049 L 296.401 232.049 Q 322.964 232.049 322.964 248.714 L 322.964 248.714 L 322.964 277.095 Q 322.964 281.539 324.883 285.377 Z M 293.775 273.964 L 293.775 273.964 Q 301.956 273.964 301.956 265.48 L 301.956 265.48 L 301.956 262.046 Q 300.946 263.763 297.411 264.167 L 297.411 264.167 L 292.563 264.773 Q 287.614 265.379 287.614 269.318 L 287.614 269.318 Q 287.614 273.964 293.775 273.964 Z M 351.85 213.465 L 351.85 285.377 L 330.842 285.377 L 330.842 213.465 L 351.85 213.465 Z M 415.783 258.713 L 415.783 258.713 Q 415.783 261.642 415.379 264.571 L 415.379 264.571 L 377.403 264.571 Q 377.807 272.55 387.402 272.55 L 387.402 272.55 Q 392.755 272.55 394.876 269.722 L 394.876 269.722 L 414.47 269.722 Q 412.147 277.802 404.875 282.195 Q 397.603 286.589 386.998 286.589 L 386.998 286.589 Q 373.363 286.589 365.535 279.367 Q 357.708 272.146 357.708 259.521 L 357.708 259.521 Q 357.708 247.098 365.586 239.523 L 365.586 239.523 Q 373.565 232.049 386.897 232.049 L 386.897 232.049 Q 399.926 232.049 407.905 239.119 L 407.905 239.119 Q 415.783 246.29 415.783 258.713 Z M 386.594 245.987 L 386.594 245.987 Q 378.918 245.987 377.706 253.663 L 377.706 253.663 L 395.583 253.663 Q 394.876 245.987 386.594 245.987 Z" stroke-linecap="round" />
</g>
</svg>